<svg xmlns="http://www.w3.org/2000/svg" xmlns:xlink="http://www.w3.org/1999/xlink" xmlns:inkscape="http://www.inkscape.org/namespaces/inkscape" version="1.1" width="577.524" height="268.507" viewBox="0 0 577.524 268.507">
<defs>
<clipPath id="clip_1">
<path transform="matrix(1,0,0,-1,0,268.507)" d="M0 268.507H577.524V0H0Z"/>
</clipPath>
</defs>
<g inkscape:groupmode="layer" inkscape:label="Layer 1">
<g clip-path="url(#clip_1)">
<path transform="matrix(1,0,0,-1,7.608,38.843797)" d="M0 0C0-17.172 14.112-31.094 31.52-31.094 48.926-31.094 63.038-17.172 63.038 0 63.038 17.172 48.926 31.094 31.52 31.094 14.112 31.094 0 17.172 0 0M31.52 37.928C53.496 37.944 70.688 22.268 70.698 .026 70.714-22.218 53.546-37.912 31.57-37.928 9.6-37.944-7.592-22.268-7.608-.024-7.618 22.218 9.55 37.92 31.52 37.928" fill="#2e394d"/>
<path transform="matrix(1,0,0,-1,98.7738,69.313098)" d="M0 0H41.144C41.316 0 41.454-.138 41.454-.308V-6.508C41.454-6.68 41.316-6.818 41.144-6.818H-7.9C-8.07-6.818-8.208-6.68-8.208-6.508V67.48C-8.208 67.65-8.07 67.788-7.9 67.788H-.616C-.446 67.788-.308 67.65-.308 67.48V.308C-.308 .138-.17 0 0 0" fill="#2e394d"/>
<path transform="matrix(1,0,0,-1,155.5036,8.766388)" d="M0 0 .1-60.238C.1-60.414 .242-60.554 .416-60.554L24.118-60.514C41.03-60.484 54.716-47.316 54.688-31.1V-31.094-28.944C54.656-12.73 40.926 .388 24.018 .358L.316 .316C.142 .316 0 .174 0 0M-7.976 6.8C-7.976 6.954-7.854 7.08-7.7 7.084L24.768 7.2C45.498 7.272 62.36-8.738 62.43-28.56L62.446-31.278C62.518-51.102 45.77-67.232 25.038-67.306H25.036L-7.434-67.422C-7.59-67.422-7.718-67.296-7.718-67.138Z" fill="#2e394d"/>
<path transform="matrix(1,0,0,-1,268.9213,56.59549)" d="M0 0C.1 0 .192 .07 .276 .208 11.376 19.294 21.944 37.44 31.978 54.646 32.132 54.914 32.418 55.08 32.728 55.08H38.262C38.524 55.08 38.736 54.866 38.736 54.604V-19.334C38.736-19.44 38.65-19.526 38.544-19.526H31.37C31.254-19.526 31.16-19.434 31.16-19.318V39.378C31.158 39.47 31.082 39.542 30.99 39.54 30.934 39.538 30.882 39.51 30.852 39.462L2.184-9.526C2.038-9.77 1.818-9.958 1.558-10.06 1.536-10.064 1.016-10.068 0-10.068-1.016-10.074-1.536-10.07-1.558-10.06-1.818-9.958-2.038-9.77-2.184-9.526L-30.886 39.444C-30.934 39.524-31.036 39.548-31.116 39.498-31.164 39.47-31.192 39.418-31.194 39.362L-31.152-19.334C-31.152-19.45-31.246-19.544-31.36-19.544L-38.536-19.552C-38.642-19.552-38.728-19.466-38.728-19.36L-38.778 54.58C-38.778 54.842-38.566 55.054-38.304 55.054L-32.77 55.062C-32.46 55.062-32.174 54.898-32.02 54.63-21.974 37.428-11.392 19.288-.274 .208-.198 .07-.106 0 0 0" fill="#2e394d"/>
<path transform="matrix(1,0,0,-1,334.6932,49.444887)" d="M0 0C-.06-.134 0-.292 .136-.352 .168-.366 .204-.374 .242-.376H35.212C35.358-.374 35.476-.254 35.476-.106 35.476-.07 35.468-.034 35.452 0L17.968 39.154C17.906 39.286 17.748 39.344 17.614 39.282 17.556 39.256 17.512 39.21 17.484 39.154ZM17.784 47.92C19.04 47.92 20.184 47.898 21.218 47.854 21.524 47.842 21.798 47.658 21.926 47.378L55.688-26.544C55.712-26.598 55.69-26.662 55.638-26.686 55.626-26.692 55.61-26.694 55.596-26.694H47.72C47.63-26.694 47.546-26.64 47.504-26.552L38.712-7.318C38.568-7.004 38.258-6.802 37.92-6.8 37.108-6.79 30.392-6.782 17.768-6.776 5.144-6.77-1.572-6.772-2.384-6.784-2.722-6.784-3.032-6.986-3.176-7.3L-11.976-26.536C-12.018-26.622-12.102-26.678-12.192-26.678L-20.068-26.668C-20.124-26.672-20.17-26.624-20.17-26.566-20.17-26.55-20.166-26.534-20.16-26.518L13.642 47.378C13.772 47.66 14.05 47.844 14.36 47.854 15.388 47.898 16.53 47.92 17.784 47.92" fill="#2e394d"/>
<path transform="matrix(1,0,0,-1,431.4678,36.44359)" d="M0 0C12.946-16.334 19.63-24.744 20.052-25.228 20.104-25.292 20.198-25.302 20.262-25.25 20.3-25.22 20.32-25.174 20.318-25.128V34.702C20.318 34.818 20.412 34.912 20.526 34.912H27.968C28.074 34.912 28.16 34.826 28.16 34.72V-39.194C28.16-39.48 27.93-39.712 27.644-39.712L22.426-39.686C21.964-39.686 21.524-39.49 21.218-39.144 21.084-38.994 12-27.542-6.034-4.784-18.98 11.55-25.66 19.96-26.078 20.444-26.13 20.508-26.224 20.518-26.288 20.466-26.324 20.436-26.346 20.39-26.344 20.344V-39.486C-26.344-39.602-26.438-39.694-26.552-39.694H-33.994C-34.1-39.694-34.186-39.61-34.186-39.504V34.412C-34.186 34.696-33.954 34.928-33.67 34.928L-28.452 34.902C-27.99 34.904-27.55 34.706-27.244 34.362-27.11 34.212-18.03 22.758 0 0" fill="#2e394d"/>
<path transform="matrix(1,0,0,-1,500.8152,46.686296)" d="M0 0C-.056-.132 .006-.282 .138-.338 .168-.35 .2-.358 .234-.358H23.118C23.262-.356 23.374-.238 23.372-.096 23.372-.062 23.364-.03 23.352 0L11.918 27.618C11.868 27.752 11.718 27.82 11.584 27.77 11.516 27.744 11.46 27.688 11.434 27.618ZM11.792 45.162C14.714 45.162 17.468 45.148 20.052 45.12 20.224 45.116 20.378 45.012 20.444 44.854L53.43-29.044C53.494-29.192 53.426-29.364 53.278-29.428 53.242-29.444 53.202-29.452 53.162-29.452H36.22C36.068-29.454 35.93-29.362 35.87-29.218L29.028-13.902C28.922-13.662 28.692-13.504 28.436-13.502 27.318-13.484 21.768-13.474 11.784-13.468 1.794-13.468-3.756-13.478-4.868-13.502-5.124-13.5-5.358-13.654-5.468-13.892L-12.31-29.21C-12.37-29.352-12.508-29.446-12.66-29.444L-29.602-29.436C-29.764-29.436-29.894-29.304-29.894-29.144-29.894-29.104-29.886-29.064-29.87-29.028L3.142 44.854C3.208 45.012 3.362 45.116 3.534 45.12 6.118 45.148 8.87 45.162 11.792 45.162" fill="#206499"/>
<path transform="matrix(1,0,0,-1,557.0616,1.5910034)" d="M0 0H16.484C16.7 0 16.876-.176 16.876-.392V-74.164C16.876-74.38 16.7-74.556 16.484-74.556H0C-.216-74.556-.392-74.38-.392-74.164V-.392C-.392-.176-.216 0 0 0" fill="#206499"/>
<path transform="matrix(1,0,0,-1,125.4259,89.79819)" d="M0 0-1.408-2.426C-1.5-2.586-1.704-2.646-1.866-2.558-4.434-1.15-12.284 .734-12.984-3.9-13.768-9.068 1.776-6.068 1-15.042 .634-19.334-3.092-21.31-7-21.602-10.984-21.89-14.506-21.08-17.568-19.168-17.884-18.974-17.988-18.564-17.802-18.244L-16.426-15.86C-16.316-15.668-16.07-15.604-15.88-15.714-15.872-15.718-15.866-15.722-15.86-15.726-13.22-17.526-10.186-18.252-6.758-17.902-3.376-17.552-1.626-13.592-5.476-12.426-6.876-12.004-9.212-11.304-12.484-10.326-15.58-9.414-17.206-7.632-17.368-4.976-17.918 4.184-5.408 3.55-.25 .842 .048 .688 .166 .32 .012 .022 .008 .014 .004 .008 0 0" fill="#2e394d"/>
<path transform="matrix(1,0,0,-1,170.6548,99.282199)" d="M0 0C0 4.63-3.754 8.384-8.384 8.384-13.014 8.384-16.768 4.63-16.768 0-16.768-4.63-13.014-8.384-8.384-8.384-3.754-8.384 0-4.63 0 0M-21.236 0C-21.236 6.78-15.482 12.276-8.384 12.276-1.286 12.276 4.468 6.78 4.468 0 4.468-6.78-1.286-12.276-8.384-12.276-15.482-12.276-21.236-6.78-21.236 0" fill="#2e394d"/>
<path transform="matrix(1,0,0,-1,380.0469,99.282199)" d="M0 0C0 4.63-3.754 8.384-8.384 8.384-13.014 8.384-16.768 4.63-16.768 0-16.768-4.63-13.014-8.384-8.384-8.384-3.754-8.384 0-4.63 0 0M4.468 0C4.468-6.78-1.286-12.276-8.384-12.276-15.482-12.276-21.236-6.78-21.236 0-21.236 6.78-15.482 12.276-8.384 12.276-1.286 12.276 4.468 6.78 4.468 0" fill="#2e394d"/>
<path transform="matrix(1,0,0,-1,473.588,89.79819)" d="M0 0-1.408-2.426C-1.5-2.586-1.704-2.646-1.866-2.558-4.434-1.15-12.292 .742-12.992-3.892-13.776-9.068 1.776-6.068 .992-15.052 .626-19.344-3.1-21.318-7.008-21.602-10.998-21.89-14.524-21.08-17.584-19.168-17.9-18.974-18.004-18.564-17.818-18.244L-16.442-15.86C-16.332-15.668-16.088-15.604-15.896-15.714-15.89-15.718-15.882-15.722-15.876-15.726-13.232-17.526-10.196-18.252-6.768-17.902-3.384-17.552-1.634-13.592-5.484-12.426-6.884-12.004-9.22-11.304-12.492-10.326-15.588-9.41-17.216-7.622-17.376-4.968-17.926 4.192-5.408 3.558-.25 .842 .048 .688 .166 .32 .012 .022 .008 .014 .004 .008 0 0" fill="#2e394d"/>
<path transform="matrix(1,0,0,-1,200.6655,87.41449)" d="M0 0H3.808C3.974 0 4.108-.134 4.108-.3V-19.702C4.108-19.868 4.242-20.002 4.408-20.002H16.218C16.384-20.002 16.518-20.136 16.518-20.302V-23.418C16.518-23.584 16.384-23.718 16.218-23.718H0C-.166-23.718-.3-23.584-.3-23.418V-.3C-.3-.134-.166 0 0 0" fill="#2e394d"/>
<path transform="matrix(1,0,0,-1,251.3948,107.599597)" d="M0 0C3.676 0 5.858 2.208 5.95 5.926 6.062 10.182 6.082 14.832 6.008 19.876 6.004 20.038 6.132 20.172 6.292 20.176H6.3 10.084C10.242 20.176 10.372 20.054 10.376 19.902 10.454 13.062 10.424 8.248 10.284 5.458 9.976-.65 5.776-3.858 0-3.85-5.776-3.85-9.968-.642-10.276 5.468-10.41 8.256-10.434 13.07-10.35 19.91-10.346 20.064-10.218 20.186-10.06 20.184H-6.276C-6.114 20.186-5.984 20.054-5.984 19.894V19.884C-6.062 14.84-6.048 10.186-5.942 5.926-5.85 2.216-3.666 0 0 0" fill="#2e394d"/>
<path transform="matrix(1,0,0,-1,295.3067,87.41449)" d="M0 0H9.684C9.906-.004 10.084-.186 10.084-.408V-3.316C10.084-3.538 9.902-3.716 9.676-3.716H2.658C2.41-3.716 2.208-3.922 2.208-4.176V-23.152C2.21-23.436 1.992-23.672 1.708-23.694 1.498-23.71 .926-23.718-.008-23.718-.936-23.718-1.508-23.71-1.726-23.694-2.004-23.668-2.218-23.432-2.216-23.152V-4.176C-2.216-3.922-2.418-3.716-2.666-3.716H-9.684C-9.91-3.716-10.092-3.538-10.092-3.316V-.408C-10.092-.186-9.914-.004-9.692 0Z" fill="#2e394d"/>
<path transform="matrix(1,0,0,-1,329.6178,87.41449)" d="M0 0H3.834C3.99 0 4.118-.126 4.118-.284V-23.418C4.118-23.576 3.99-23.702 3.834-23.702H0C-.156-23.702-.284-23.576-.284-23.418V-.284C-.284-.126-.156 0 0 0" fill="#2e394d"/>
<path transform="matrix(1,0,0,-1,418.4834,100.69058)" d="M0 0C-2.716 3.34-4.136 5.08-4.258 5.226-4.316 5.298-4.422 5.306-4.494 5.244-4.534 5.21-4.558 5.16-4.558 5.108V-10.142C-4.558-10.318-4.7-10.46-4.876-10.46H-8.66C-8.816-10.46-8.942-10.332-8.942-10.176V12.776C-8.942 13.052-8.718 13.276-8.442 13.276H-5.734C-5.474 13.278-5.228 13.162-5.058 12.96-3.836 11.482-1.08 8.104 3.208 2.826 5.926-.52 7.346-2.264 7.468-2.408 7.524-2.482 7.63-2.49 7.704-2.428 7.744-2.394 7.766-2.344 7.768-2.292V12.96C7.768 13.134 7.91 13.276 8.084 13.276H11.868C12.024 13.276 12.152 13.15 12.152 12.992V-9.96C12.152-10.236 11.928-10.46 11.65-10.46H8.942C8.684-10.46 8.436-10.344 8.268-10.142 7.046-8.664 4.29-5.284 0 0" fill="#2e394d"/>
<path transform="matrix(1,0,0,-1,575.8882,177.0886)" d="M0 0C-8.818 4.594-18.946 8.778-30.386 12.55-68.234 25.014-106.92 28.042-146.446 21.636-168.542 18.052-189.438 11.364-209.134 1.576-216.806-2.236-226.199-7.498-237.311-14.21-259.939-27.868-278.473-39.186-300.559-49.196-312.221-54.48-323.161-58.43-333.377-61.046-345.745-64.208-357.871-66.208-369.755-67.048-396.453-68.936-422.641-66.16-448.321-58.722-476.183-50.654-501.277-37.75-523.601-20.01-543.375-4.292-558.977 14.854-570.405 37.428-570.453 37.548-570.395 37.684-570.275 37.732-570.191 37.766-570.097 37.748-570.029 37.686-527.609-8.51-462.263-31.302-400.375-29.002-395.491-28.818-388.759-28.258-380.181-27.318-348.595-23.86-321.151-11.75-293.391 4.008-275.181 14.342-258.747 23.686-241.629 32.002-201.48 51.52-158.934 58.436-113.992 52.746-109.942 52.234-106.18 51.58-102.708 50.78-97.55 49.596-92.566 49.028-87.748 47.67-77.086 44.648-70.048 42.462-66.63 41.112-64.57 40.306-61.038 38.842-56.038 36.72-38.326 29.22-22.158 19.412-7.534 7.3-4.7 4.95-2.158 2.556 .092 .116 .12 .086 .118 .04 .088 .01 .064-.012 .028-.016 0 0" fill="#206499"/>
<path transform="matrix(1,0,0,-1,165.171,174.47179)" d="M0 0C18.858-.216 37.92 2.308 57.188 7.576 68.866 10.764 80.592 14.626 92.366 19.16 92.91 19.362 93.514 19.084 93.716 18.54 93.864 18.14 93.756 17.69 93.44 17.402 71.19-2.506 45.156-14.228 15.342-17.768 10.37-18.358 5.184-18.62-.216-18.56-5.618-18.498-10.796-18.116-15.752-17.41-45.476-13.188-71.23-.87-93.016 19.544-93.432 19.948-93.442 20.612-93.038 21.028-92.744 21.33-92.3 21.428-91.908 21.276-80.24 16.47-68.606 12.34-57.004 8.884-37.858 3.178-18.858 .216 0 0" fill="#3d89c8"/>
<path transform="matrix(1,0,0,-1,222.6839,257.537)" d="M0 0C18.846-3.39 38.578-1.94 59.196 4.35 74.52 9.028 89.444 15.238 103.966 22.976 122.944 33.086 143.112 45.846 158.754 54.43 173.5 62.53 187.438 69 200.566 73.84 212.885 78.378 226.281 81.384 240.753 82.856 255.493 84.352 269.793 83.338 283.649 79.814 297.017 76.422 309.001 70.688 319.001 61.472 319.065 61.426 319.081 61.336 319.035 61.272 318.989 61.208 318.899 61.192 318.835 61.238 312.601 64.564 306.451 66.546 298.217 68.488 294.867 69.278 291.817 69.826 289.065 70.13 277.287 71.458 265.641 71.158 254.129 69.23 239.507 66.78 225.761 62.802 212.893 57.296 204.636 53.762 195.108 49.074 184.306 43.228 182.15 42.062 167.936 34.212 141.662 19.676 115.142 5 86.498-6.45 57.204-9.168 50.248-9.812 42.176-9.792 32.986-9.11 22.826-8.35 13.484-5.942 4.076-2.142 2.13-1.358 .748-.714-.076-.208-.128-.174-.146-.102-.116-.048-.092-.008-.046 .012 0 0" fill="#c2a481"/>
</g>
</g>
</svg>
